# xmcd
#
# Track frame offsets:
#	150
#	16669
#	32862
#	47944
#	64797
#	83913
#	98056
#	117484
#	134116
#	154186
#	171560
#
# Disc length: 2554 seconds
#
# Revision: 0
# Processed by: cddbd v1.4PL0 Copyright (c) Steve Scherf et al.
# Submitted via: dBpowerAMP V4.0
#
DISCID=9909f80b
DTITLE=Zohreh - Man, to etc...
DYEAR=2002
DGENRE=Central Asian
TTITLE0=ESHQ
TTITLE1=FASLI SARD
TTITLE2=MESLE CINEMA
TTITLE3=BAYAD BERAVAM
TTITLE4=MADEMOISELLE Z
TTITLE5=LIMOUSINE
TTITLE6=TAMAME
TTITLE7=HAVVA
TTITLE8=RO'YAYE ZAN
TTITLE9=BA BAD MIRAQSAM
TTITLE10=JAME GOLGUN
EXTD=http://zohreh.minuscule-music.com
EXTT0=
EXTT1=
EXTT2=
EXTT3=
EXTT4=
EXTT5=
EXTT6=
EXTT7=
EXTT8=
EXTT9=
EXTT10=
PLAYORDER=
